<svg width="18" height="7" viewBox="0 0 18 7" fill="none" xmlns="http://www.w3.org/2000/svg">
<path fill-rule="evenodd" clip-rule="evenodd" d="M8.99998 2.12439C7.57362 2.12439 6.17239 2.49988 4.93716 3.21312C3.70193 3.92636 2.67622 4.95221 1.96315 6.18754C1.79059 6.48649 1.40836 6.58894 1.10941 6.41638C0.810458 6.24382 0.708001 5.86159 0.880563 5.56264C1.70333 4.13725 2.88684 2.95358 4.31211 2.13062C5.73738 1.30765 7.35418 0.87439 8.99998 0.87439C10.6458 0.87439 12.2626 1.30765 13.6879 2.13062C15.1131 2.95358 16.2966 4.13725 17.1194 5.56264C17.292 5.86159 17.1895 6.24382 16.8906 6.41638C16.5916 6.58894 16.2094 6.48649 16.0368 6.18754C15.3237 4.95221 14.298 3.92636 13.0628 3.21312C11.8276 2.49988 10.4263 2.12439 8.99998 2.12439Z" fill="#9CADF2"/>
</svg>
