<svg width="8" height="8" viewBox="0 0 8 8" fill="none" xmlns="http://www.w3.org/2000/svg">
<path fill-rule="evenodd" clip-rule="evenodd" d="M4 1.875C3.41984 1.875 2.86344 2.10547 2.4532 2.5157C2.04297 2.92594 1.8125 3.48234 1.8125 4.0625V6.875C1.8125 7.22018 1.53268 7.5 1.1875 7.5C0.842322 7.5 0.5625 7.22018 0.5625 6.875V4.0625C0.5625 3.15082 0.924664 2.27648 1.56932 1.63182C2.21398 0.987164 3.08832 0.625 4 0.625C4.91168 0.625 5.78602 0.987164 6.43068 1.63182C7.07534 2.27648 7.4375 3.15082 7.4375 4.0625V6.875C7.4375 7.22018 7.15768 7.5 6.8125 7.5C6.46732 7.5 6.1875 7.22018 6.1875 6.875V4.0625C6.1875 3.48234 5.95703 2.92594 5.5468 2.5157C5.13656 2.10547 4.58016 1.875 4 1.875Z" fill="#9CADF2"/>
</svg>
